<svg version="1" xmlns="http://www.w3.org/2000/svg" width="2090.667" height="2090.667" viewBox="0 0 1568.000000 1568.000000"><path d="M839.5 3c-.3.5-.4 1 0 1 .3 0 0 1-.7 2.2-.7 1.3-1.3 2.5-1.4 2.8-.1.7-1.4 4.2-2.4 6.5-.5 1.1-4.3 10.5-8.4 21-4.1 10.4-8 20.3-8.7 22-.7 1.6-1.3 3.2-1.4 3.5-1.8 6.1-3 9-3.7 9-.4 0-.7.3-.6.7.2.5-2 6.4-4.7 13.3s-5 12.7-5.1 13c-.1.7-1.4 3.8-3.4 8.7-1 2.3-1.6 4.4-1.2 4.7.3.3 0 .6-.6.6-.7 0-1.2.8-1.2 1.8s-.5 2.3-1.2 3c-.9.9-.9 1.2.2 1.2.7 0 1 .3.7.7-.4.3 0 1.7.8 3 .9 1.3 1.3 2.3.9 2.3s-.2.6.4 1.2c1 1.3 2.9 4.7 10.2 18.3 2.4 4.4 5.3 9.8 6.5 12 1.3 2.2 3.6 6.5 5.2 9.5 1.7 3 4 7.3 5.2 9.4 1.3 2.2 4.1 7.4 6.3 11.5 2.1 4.2 5.2 9.9 6.7 12.7 3 5.4 7.3 13.3 14.1 25.9 2.4 4.4 5.4 9.8 6.6 12 1.3 2.2 3.3 6 4.5 8.5l2.3 4.4.7-2.7c.4-1.5 1-4.7 1.3-7 .3-2.3.8-5.1 1-6.2.7-4.1 2.6-15.1 3-17.5.3-1.4.5-2.5.6-2.5.1 0 .4-1.4.6-3 .4-4.2.9-7.2 2.2-13.5.7-3 1.4-7 1.7-8.8.3-1.7.8-4.7 1.1-6.5.4-1.7.8-4.6.9-6.2.2-1.7.4-3 .5-3 .2 0 .5-1.5 2.4-12.5 2.1-12.2 2.9-16.5 4.6-26.1.6-3.3 1.3-7.2 1.5-8.7.2-1.5 1-6.1 1.8-10.2 1.3-7.4.7-13-1.4-13-.5 0-.8-.3-.8-.8.1-.4 0-1-.1-1.5-.1-.4-.3-1-.4-1.5-.1-.4-1.3-3.2-2.8-6.2C872.9 69.4 866 54.7 866 54.5c0-.3-8.8-18.8-17.5-37-2.9-6.1-5.6-12-5.9-13.3-.8-2.3-2.1-2.9-3.1-1.2zM782.3 272.8c-.1.9-.9 5.7-1.7 10.7-.9 4.9-1.8 10.3-2.1 12-1.4 8.6-1.7 10.1-2.2 10.9-.3.4-.7 2.7-.8 5-.1 2.2-1.5 10.8-3 19.1-1.5 8.2-2.8 16.1-3 17.5-.7 5.7-2.2 14.5-2.5 14.5-.1 0-.3 1.3-.5 3-.1 1.6-.3 3-.5 3-.1 0-.3 1.3-.5 3-.8 7.5-1.3 10.4-1.8 11.2-.3.5-.8 3.5-1.1 6.7-.4 3.2-.8 6.1-1 6.5-.2.3-.7 2.8-1 5.6-.4 2.7-.9 5.7-1.1 6.5-.7 2.3-1.5 7.1-2 11-.2 1.9-.7 4.6-1 6-.3 1.4-.8 4.5-1.1 7-.3 2.5-.8 5.4-1 6.5-.2 1.1-.8 4.5-1.4 7.5-.5 3-1.2 7.1-1.6 9-.3 1.9-.8 4.6-1 6-1.7 12-1.3 11.1-10.7 22.8-3.4 4.3-7.3 9.3-8.7 11.1-1.4 1.9-3.5 4.5-4.7 5.8-1.3 1.3-2.3 2.7-2.3 3.1 0 .4-1.2 1.8-2.5 3.1-1.4 1.3-2.5 2.8-2.5 3.3 0 .6-.6 1.6-1.3 2.2-.8.6-5.4 6.3-10.3 12.6s-9.1 11.7-9.4 12c-.3.3-2.7 3.4-5.5 7-2.7 3.6-5.5 7.2-6.2 8-4 5.1-8.4 10.6-9.1 11.5-1.1 1.6-7.6 9.8-8.9 11.5-.7.8-5.6 7.1-11 14-5.3 6.9-10.1 12.6-10.5 12.8-.4.2-.8 1-.8 1.8s-.3 1.4-.7 1.4c-.5 0-2.4 2.3-4.3 5s-3.8 5-4.2 5c-.5 0-.8.7-.8 1.5s-.4 1.5-.8 1.5c-.5 0-2.3 2-4 4.4-1.8 2.5-4.1 5.5-5.2 6.8-2.1 2.5-11.7 14.8-19.5 24.8-2.7 3.6-5.2 6.7-5.5 7-.3.3-1.9 2.3-3.5 4.5-1.7 2.2-3.2 4.2-3.5 4.5-.3.3-1.8 2.3-3.5 4.5-1.6 2.2-3.2 4.2-3.5 4.5-.3.3-2.1 2.5-4 5s-3.8 4.6-4.2 4.8c-.5.2-.8.8-.8 1.4 0 .6-.8 1.8-1.8 2.7-1 .9-2.9 3.2-4.2 5.1-1.3 1.9-2.9 4-3.5 4.6-.5.6-1.9 2.3-3 3.8-1.1 1.6-2.5 3.3-3 4-.6.6-3.5 4.2-6.4 8.1-3 3.8-5.6 7.2-6 7.5-.3.3-2.2 2.7-4.1 5.3-1.9 2.7-4.3 5.6-5.2 6.5-1 .9-1.8 2.2-1.8 2.9 0 .7-.3 1.3-.8 1.3-.4 0-3.2 3.2-6.2 7.2-9.1 12-25.8 33.2-28 35.5-1.1 1.2-2 2.7-2 3.2s-.3 1.1-.8 1.3c-.6.3-3.1 3.3-11.5 14.2-1.2 1.6-3.2 4-4.4 5.4-1.3 1.4-2.3 2.8-2.3 3.1 0 .3-1.4 2.2-3 4.1-1.6 1.9-3.4 4-4 4.7-8.9 10.6-10.9 14.5-17.1 33.6-3.5 10.5-6.4 19.4-6.5 19.7 0 .3-.3 1.2-.7 2-.6 1.6-8 24.1-8.2 25-.3 1.9-2.9 8.7-3.7 9.6-.5.7-.8 1.6-.7 2 .1.5 0 1.6-.3 2.4-.4.8-.9 2.4-1.4 3.5-.9 2.4-.8 2.2-1.8 6.5-.5 1.9-1.2 4.1-1.7 5-.4.8-2 5.3-3.4 10-1.5 4.7-3 9.4-3.5 10.5-1.7 4-32.3 97-32.3 98.2 0 .7-.3 1.3-.7 1.3-.4 0-.7.6-.7 1.2 0 .7-3.3 11-7.3 22.8-3.9 11.8-7.3 22.3-7.5 23.2-.2.9-.8 2.5-1.4 3.6-.7 1.4-.6 2.5.5 4 .8 1.2 1.3 2.2 1 2.2-.4 0 4.9 16.5 7.1 22 .3.8.7 2.2.9 3 .2.8.7 2.3 1.2 3.5.5 1.1 1.9 5.1 3.2 9 1.2 3.8 2.4 7.7 2.7 8.5 2.1 5.7 11.5 32.8 11.8 34 .5 1.8 18 52.9 18.9 55 .3.8 3 8.7 5.9 17.5 3 8.8 9.1 26.8 13.7 40 4.5 13.2 8.4 24.9 8.7 26 .2 1.1.8 2.9 1.3 4 1.4 3.4 3.5 9 3.6 9.5.3 1.9 1.8 6.7 2.3 7.5.3.5.6 1.4.7 2 .1.5 1.9 5.7 3.9 11.5s3.9 11.2 4.1 12c.2.8 2.4 7.3 5 14.5 2.5 7.1 4.8 13.9 5.1 15 .2 1.1.8 2.9 1.3 4 1.3 3.4 4.1 11.4 4.1 11.7-.1.3 7 20.4 8.4 24.1.4 1 2.6 2.3 5.1 2.9 2.4.7 4.4 1.6 4.4 2.1 0 .4.4.6.8.3.4-.2 2.1.1 3.7.9 1.7.7 5.9 2.5 9.5 3.8 3.6 1.4 7.9 3.1 9.5 3.8 1.7.7 3.3 1.3 3.8 1.4.4.2.9.4 1.2.5.3.1.8.3 1.3.4.4.1 2.5 1 4.7 2s4.5 1.9 5 2c.6.1 3.5 1.1 6.5 2.3 10.8 4.1 29.5 11.4 31.5 12.2 6.3 2.6 23.2 9.1 23.8 9.1.4 0 2.6.9 5 1.9 2.3 1.1 10.1 4.1 17.2 6.9 7.2 2.7 13.9 5.3 15 5.7 1.1.5 2.2.9 2.5 1 .3.1 1.8.7 3.3 1.3 1.6.7 3 1.2 3.2 1.2.2 0 1.6.5 3.2 1.2 1.5.6 3 1.2 3.3 1.3.3.1 1.3.5 2.3.8.9.4 2.5 1 3.5 1.4.9.3 1.9.7 2.2.8.3.1 1.6.6 3 1.3 5.2 2.3 23.9 9.2 24.9 9.2.6 0 1.1.5 1.1 1 0 .6.3.9.8.8 1-.3 8.5 2.3 9.7 3.3.5.5 1.8.9 3 .9s2.5.4 3 .9c.6.4 9.6 4.1 20 8 10.5 4 19.9 7.6 21 8.1 3.2 1.5 29.8 11.7 32.5 12.5 1.4.4 3 1.2 3.6 1.7.7.5 2 1 3 1.3 2.9.6 15.8 5.6 17 6.6.6.5 5.4-1.4 12.7-5 6.4-3.2 11.7-5.7 11.7-5.4 0 .2 1.3-.5 2.9-1.6 1.6-1.2 3.6-2.1 4.4-2.1.9 0 1.7-.3 1.9-.8.2-.4 8.2-4.5 17.8-9.2 9.6-4.7 17.8-8.9 18.1-9.3.3-.5 1-.9 1.5-.8.5 0 9.9-4.5 20.9-10 11-5.4 20.5-9.9 21.2-9.9.6 0 1.3-.3 1.5-.8.4-.8 15.4-8.3 16.4-8.2.4.1 1-.2 1.3-.7.5-.7 37.5-19.4 39.1-19.8 1.2-.2 27.6-13.6 28.7-14.5.7-.5 1.5-1 1.9-1 1.2 0 17.9-8.4 18.5-9.3.3-.5.8-.7 1-.5.4.3 48.1-22.9 51.9-25.2.8-.5 3.8-2 6.5-3.3 21.7-10.5 47.1-23.3 47.3-23.9.2-.5 1.2-.8 2.3-.8 1 0 1.9-.5 1.9-1 0-.6.3-.9.8-.8.6.2 8.9-3.7 10-4.7.2-.2.5-2 .8-4.1.2-2.2.9-6.6 1.5-9.9.5-3.3 1.2-7.8 1.5-10 .2-2.2.6-5.1.8-6.5.2-1.4.7-4.8 1.1-7.5.3-2.8.8-6.1 1.1-7.5 1-5.7 1.8-12.7 1.9-15.3 0-1.5.2-2.7.5-2.7s.6-.8.6-1.8c.1-1.6.4-4.1 2.8-20.7.3-2.2.8-5.6 1.1-7.5.2-1.9.9-6.7 1.5-10.5.5-3.9 1.2-8.4 1.3-10 .2-1.7.7-3.6 1.1-4.3.4-.7.5-1.5.2-2-.2-.4-.1-2.8.4-5.2.5-2.5 1.1-6.5 1.4-9 .4-2.5.9-5.6 1.1-7 .2-1.4.7-4.5 1-7 .3-2.5.7-5.4.9-6.5.2-1.1.6-4 1-6.5 1.6-12.6 1.9-14.7 2.2-16.5.2-1.1.6-4 .9-6.5.3-2.5.8-5.6 1.1-7 .7-3.7 1.1-6.8 2-13.5.4-3.3.8-6.2.9-6.5.1-.3.5-3.2.9-6.5.5-3.3 1-6.7 1.1-7.6.2-.9.6-4 1-7 .3-3 .8-6.1 1-6.9.2-.8.7-3.9 1-6.9.4-3 .8-6.1 1-7 2.1-11.5 2.6-19.1 1.3-21.4-.6-1.2-1.3-2.7-1.4-3.2-.1-.6-2.9-6.7-6.3-13.7-3.4-7-6.1-12.9-6.1-13.1 0-.3-2.3-5.4-5.1-11.3-2.8-6-6.9-14.6-9-19.2-2.2-4.5-3.9-8.7-3.9-9.2 0-.6-.4-1-.8-1-.5 0-.9-.6-.9-1.3 0-1.1-3.5-8.8-11.8-25.8-1.4-2.9-2.5-5.9-2.5-6.6 0-.7-.4-1.3-1-1.3-.5 0-1-.4-1-1 0-.5-1.3-3.9-3-7.5-1.6-3.6-4.4-9.5-6-13.1-1.7-3.6-4.6-9.8-6.6-13.7-1.9-4-3.5-7.3-3.5-7.4 0-.2-1.8-4.2-4-9-2.2-4.9-5-10.8-6.1-13.3-1.1-2.5-4.5-9.6-7.4-15.9-3-6.2-5.4-11.5-5.4-11.8 0-.2-1.5-3.5-3.4-7.3-1.9-3.7-3.2-7.1-2.8-7.4.3-.3 0-.6-.6-.6-.7 0-1.2-.4-1.2-.9s-2-5.1-4.4-10.3c-4.8-10.3-8.5-18.2-12.6-27.3-1.5-3.3-4.6-10.1-7-15-2.3-5-5.2-11.3-6.5-14-1.3-2.8-4.5-9.5-7-15-5.4-11.4-8.8-18.8-9-19.5-.1-.3-1.7-3.7-3.5-7.5-1.8-3.9-3.4-7.2-3.5-7.5-.2-.7-3.4-7.6-8.5-18.5-2.3-5-5.3-11.5-6.7-14.5-1.4-3-4.8-10.2-7.4-15.9-2.7-5.7-4.9-10.7-4.9-11.2s-.3-.9-.7-.9c-.5 0-.9-1.5-.9-3.3-.1-1.7-.4-4.3-.7-5.7-.3-1.4-.8-4.8-1.1-7.5-.3-2.8-.8-6.1-1-7.5-.3-1.4-.8-4.8-1.1-7.5-.4-2.8-.9-5.9-1-7-.2-1.1-.6-4-.9-6.5-.4-2.5-.9-5.6-1.1-7-.3-1.4-.7-4.1-.9-6-.6-4.6-1.6-10.9-2.1-14-.3-1.4-.7-4.5-1-7-.3-2.5-.7-5.4-.9-6.5-.8-4.4-1.9-11.1-2.2-14-.6-5.5-2.2-17.1-2.8-20-.5-2.5-1.7-10.9-2.1-15-.2-1.7-.6-4.4-.9-6-.8-4.8-1.4-8.7-2-13.5-.3-2.5-.8-5.6-1.1-7-.3-1.4-.7-4.3-1-6.5-.3-2.2-.7-4.9-.9-6-.3-1.1-.5-2.9-.5-4-.1-1.7-.3-1.7-1.5-.5-.7.8-2.8 4.4-4.7 8-1.9 3.6-3.6 6.7-3.9 7-.3.3-1.1 1.6-1.9 3-1.9 3.4-9.2 16.4-11.1 19.8-.8 1.5-3.7 6.5-6.5 11.2-2.7 4.7-5.6 9.8-6.5 11.5-2.9 5.3-7.2 13-8 14-.4.5-2.1 3.5-3.7 6.5-1.7 3-3.9 7.1-5.1 9-1.1 1.9-3.3 5.7-4.8 8.5-1.4 2.7-3.5 6.2-4.5 7.7-1.1 1.4-1.9 2.9-1.9 3.2 0 .3-1.4 2.9-3.1 5.8-1.7 2.9-4.7 8.2-6.6 11.8-2 3.6-4.2 7.2-4.9 8.1-.8.8-1.4 1.8-1.4 2.2 0 .3-1.5 3.2-3.4 6.4s-3.5 6.2-3.6 6.8c-.1.5-.7 1.7-1.4 2.5-.6.8-1.8 2.8-2.6 4.5-.8 1.6-2.1 3.6-2.7 4.3-.7.7-1.3 2-1.3 2.8 0 .8-.3 1.4-.7 1.4-.5 0-1.3 1-1.8 2.3-2 4.1-7 13.2-7.6 13.7-.4.3-1.8 2.7-3.3 5.5-1.4 2.7-3.4 6.3-4.4 8-.9 1.6-3.4 6-5.5 9.7-2.1 3.8-3.9 6.8-4.1 6.8-.4 0 .4-47.8 1.9-112.5.3-11 .7-31.9 1-46.5.3-14.6.7-28.2.8-30.3.1-2-.1-3.7-.6-3.7-.4 0-.5-.5-.1-1.2.7-1.1 1.5-33.5 1.7-68.8l.1-17.5-3.6-9.5c-3.2-8.4-19.1-51.3-23.9-64.5-1-2.8-3-8.2-4.5-12-1.4-3.9-3-8.6-3.6-10.5-.6-1.9-1.3-4-1.7-4.5-.6-.8-6.3-15.7-6.7-17.5 0-.3-.6-1.9-1.3-3.5-.7-1.7-1.4-3.5-1.5-4-.3-1.2-1-3-3.9-10.5-1.2-3-2.2-6-2.3-6.5-.2-1.1-5-13.9-6.3-17-.5-1.1-1.4-3.4-1.9-5-.6-1.7-4.1-11.1-7.7-21-3.7-9.9-7.1-19.4-7.7-21-1.5-3.9-2.3-4.9-2.5-2.7z"/></svg>