<svg version="1" xmlns="http://www.w3.org/2000/svg" width="1084" height="1084" viewBox="0 0 813.000000 813.000000"><path d="M436.2 2.7c-.6 1.5-5.3 13.6-10.5 26.8-9.9 25.3-10.6 27.1-10.8 28.3 0 .4-.5 1.2-1 1.8-.5.6-.1 2.4 1 4.5 17.8 33.1 33.5 61.7 34.7 62.9 1.2 1.2 1.4 1.1 1.5-1 0-1.4.2-3.2.4-4 .4-1.9 2.4-12.6 3-16.5.3-1.7 1.4-8 2.5-14 2.5-14.3 2.7-15.2 4.6-27l1.7-10-5.5-11.5c-3.1-6.3-6.5-13.5-7.6-16-1.1-2.5-4.5-9.6-7.5-15.8-5.3-10.9-5.5-11.2-6.5-8.5zM406.2 146.2c-.6 2.9-1.4 7.1-1.7 9.3-.4 2.2-.9 4.9-1 6-.2 1.1-1.3 7.6-2.5 14.5-1.1 6.9-2.3 13.6-2.5 15-.2 1.4-.6 3.8-.9 5.5-.3 1.6-.7 4.3-1 6-.3 1.6-1.9 11.3-3.6 21.5-1.7 10.2-3.2 19.2-3.3 20-.1.8-.5 1.7-.8 2-.6.5-10.5 13.1-34.1 43.4-5.1 6.5-12.7 16.2-16.9 21.5-4.1 5.3-14.4 18.4-22.8 29.1-8.3 10.7-15.7 20.2-16.4 21-.7.8-5.9 7.6-11.7 15-5.8 7.4-11.1 14.2-11.7 15-.7.8-8.4 10.6-17.1 21.7L242.4 433 224 488.2c-10.1 30.4-20.5 61.9-23.2 69.9l-4.8 14.6 10.6 30.9c5.8 17 11.8 34.7 13.4 39.4 1.5 4.7 8.5 25.1 15.5 45.5 6.9 20.3 14.4 42.1 16.5 48.4 2.2 6.3 4.3 11.8 4.7 12.2.8.7 16.7 7.1 48.8 19.5 8.3 3.1 25.1 9.6 37.5 14.4 12.4 4.8 29.3 11.3 37.5 14.4 8.3 3.2 16.4 6.4 18 7.1 1.7.7 7.3 2.9 12.6 4.9l9.6 3.7 17.2-8.6c9.4-4.7 17.4-8.5 17.7-8.5.3 0 1.8-.9 3.2-1.9 1.5-1 3-1.9 3.5-2 .4 0 31-15.1 68.1-33.5l67.3-33.4.8-6.3c.5-3.5.9-6.9 1-7.4.1-.6.4-2.8.8-5s1-6.3 1.3-9c.3-2.8.8-5.9 1-6.9.2-1.1.8-5.6 1.4-10 .6-4.5 1.3-9.2 1.5-10.6.2-1.4 1.4-9 2.5-17 1.2-8 2.3-15.4 2.5-16.5.2-1.1.7-4.3 1-7 1.3-10.7 1.5-12.1 2-14.5.2-1.4.7-3.9.9-5.5.2-1.7.7-4.8 1.1-7 .3-2.2.7-5.8 1-8 .2-2.2.6-5.5 1-7.3.4-2.4-.2-5-2.5-9.8-1.6-3.6-3-6.7-3-6.8 0-.2-2.9-6.5-6.5-14s-6.5-13.8-6.5-14c0-.2-2.4-5.5-5.4-11.7-2.9-6.3-6.5-13.9-7.9-16.9-4.6-10.2-27.4-59.4-31.7-68.5-2.3-5-8.2-17.6-13-28-4.8-10.5-10.9-23.5-13.5-29-2.6-5.5-4.8-10.7-5-11.5-.1-.8-.6-4.2-1-7.5-.4-3.2-.9-6.8-1.1-8-.2-1.1-.7-4.3-1-7-.3-2.8-.7-5.3-.9-5.6-.2-.3-.7-3.7-1-7.5-.4-3.8-.8-7.1-1-7.4-.2-.3-.6-2.6-1-5-.3-2.5-1-7.2-1.5-10.5s-1.2-8.3-1.5-11c-.4-2.8-.8-5.7-1.1-6.5-.2-.8-.6-3.5-.9-6-.9-6.8-1.1-7.9-1.7-8.5-.4-.4-19.1 31.8-34.5 59.5-6.5 11.6-27.7 48.6-28.3 49.3-.4.4-.5-3.9-.4-9.5.1-5.7.5-23.1.8-38.8.4-15.7.9-41.1 1.2-56.5.3-15.4.6-30.5.6-33.5.1-5.4-1.1-9.3-8.9-30.5-1.7-4.4-6.5-17.5-10.7-29-4.2-11.6-8.3-22.6-9.1-24.5-.8-1.9-3.7-9.8-6.5-17.5-2.8-7.6-5.3-14.1-5.5-14.3-.2-.2-.8 2-1.3 5z"/></svg>